<?xml version="1.0" encoding="iso-8859-1"?>
<!-- Generator: Adobe Illustrator 19.0.0, SVG Export Plug-In . SVG Version: 6.00 Build 0)  -->
<svg version="1.1" id="Layer_1" xmlns="http://www.w3.org/2000/svg" xmlns:xlink="http://www.w3.org/1999/xlink" x="0px" y="0px"
	 viewBox="0 0 511.999 511.999" style="enable-background:new 0 0 511.999 511.999;" xml:space="preserve">
<path style="fill:#E8E8E8;" d="M417.532,208.51l-42.252,31.704c-28.183,21.151-68.582,13.375-86.839-16.956
	c-15.594-25.865-9.37-59.853,15.309-78.372c25.813-19.37,16.755-12.574,42.251-31.704c9.152-7.022,77.129-62.78-24.89-96.648
	c-76.027-20.962-155.109-4.398-215.259,40.743C-3.896,139.627-26.107,295.357,56.245,405.106
	c82.351,109.75,238.079,131.958,347.829,49.607c61.628-46.231,98.173-118.171,99.294-195.285
	C499.371,152.008,426.833,201.687,417.532,208.51z"/>
<path style="fill:#D8D8D8;" d="M278.419,362.304c-54.062-72.046-37.792-174.96,36.844-226.578
	c10.951-7.58-5.202,4.424,30.739-22.544c9.152-7.022,77.129-62.78-24.89-96.648c-76.027-20.962-155.109-4.398-215.259,40.743
	C-3.896,139.627-26.107,295.357,56.245,405.106c94.059,125.352,278.926,133.022,383.237,17.296
	C380.572,435.109,316.959,413.668,278.419,362.304z"/>
<path style="fill:#C1BFBD;" d="M90.467,396.108C-10.781,261.175,49.225,66.138,209.183,11.774
	C30.916,45.321-55.423,256.288,56.245,405.106c66.218,88.249,179.874,119.878,278.926,86.078
	C245.137,508.067,149.164,474.332,90.467,396.108z"/>
<circle style="fill:#D63322;" cx="222.402" cy="90.734" r="31.215"/>
<path style="fill:#C61A0C;" d="M222.406,90.739c0-11.552,6.28-21.63,15.606-27.027c-4.592-2.657-9.919-4.186-15.606-4.186
	c-17.238,0-31.214,13.975-31.214,31.214c0,24.089,26.134,38.995,46.82,27.027C228.687,112.369,222.406,102.29,222.406,90.739z"/>
<circle style="fill:#CB47D6;" cx="413.58" cy="315.436" r="31.215"/>
<path style="fill:#B025BF;" d="M429.191,288.406c-20.703-11.978-46.82,2.968-46.82,27.027c0,17.239,13.975,31.214,31.213,31.214
	c5.689,0,11.016-1.529,15.607-4.186C408.396,330.427,408.404,300.436,429.191,288.406z"/>
<path style="fill:#FFA92C;" d="M162.072,171.975c0,21.978-17.818,39.796-39.795,39.796c-21.981,0-39.797-17.817-39.797-39.796
	s17.815-39.798,39.797-39.798C144.253,132.177,162.072,149.996,162.072,171.975z"/>
<path style="fill:#ED761D;" d="M140.501,136.6c-26.328-13.6-58.021,5.511-58.021,35.375c0,29.873,31.703,48.964,58.021,35.374
	C111.776,192.518,111.778,151.431,140.501,136.6z"/>
<circle style="fill:#4A94CC;" cx="325.435" cy="395.743" r="37.568"/>
<path style="fill:#237EB5;" d="M344.221,363.208c-5.527-3.198-11.938-5.038-18.783-5.038c-20.75,0-37.568,16.821-37.568,37.568
	c0,28.975,31.445,46.944,56.351,32.532C319.196,413.787,319.201,377.689,344.221,363.208z"/>
<circle style="fill:#8DD83D;" cx="200.816" cy="400.262" r="42.083"/>
<path style="fill:#73BF19;" d="M200.817,400.261c0-15.576,8.468-29.167,21.043-36.446c-6.192-3.583-13.375-5.645-21.043-5.645
	c-23.246,0-42.089,18.845-42.089,42.091c0,23.244,18.843,42.087,42.089,42.087c7.669,0,14.852-2.061,21.043-5.645
	C209.283,429.426,200.817,415.836,200.817,400.261z"/>
<circle style="fill:#F2D422;" cx="109.881" cy="302.798" r="43.936"/>
<path style="fill:#E2BE0A;" d="M131.847,264.756c-29.105-16.843-65.903,4.15-65.903,38.044c0,33.906,36.788,54.893,65.903,38.044
	C102.58,323.906,102.586,281.689,131.847,264.756z"/>
<g>
	<path style="fill:#231F20;" d="M511.888,259.148c-1.428-38.346-11.731-62.421-30.626-71.554
		c-26.212-12.676-58.016,8.178-67.204,14.919l-42.253,31.704c-21.463,16.108-51.346,13.403-69.514-6.297
		c-21.017-22.786-17.821-58.422,6.986-77.035l21.707-16.289c3.312-2.486,3.982-7.187,1.497-10.499
		c-2.486-3.311-7.187-3.982-10.499-1.497l-21.706,16.289c-32.085,24.076-35.931,70.035-9.008,99.199
		c23.403,25.379,61.899,28.869,89.54,8.125l42.187-31.656c3.235-2.374,32.18-22.916,51.739-13.461
		c38.054,18.396,34.28,166.273-74.135,247.619c-106.268,79.74-257.592,58.156-337.33-48.109
		C-58.196,238.731,62.819,3.51,271.211,15.569c44.818,2.505,94.305,20.02,98.641,45.75c3.611,21.431-24.205,43.472-27.389,45.914
		c-3.285,2.521-3.905,7.228-1.385,10.514c2.521,3.284,7.227,3.906,10.514,1.385c39.118-30.012,59.457-80.983-27.091-109.714
		c-0.122-0.04-0.246-0.078-0.37-0.112C176.171-31.492,24.554,66.041,2.614,219.857c-9.652,67.68,7.629,135.067,48.66,189.748
		c86.407,115.155,252.376,137.49,366.166,44.954C483.305,401.163,514.079,317.408,511.888,259.148z"/>
	<path style="fill:#231F20;" d="M223.434,52.026c-21.346,0-38.713,17.366-38.713,38.713s17.366,38.712,38.712,38.712
		s38.712-17.366,38.712-38.712S244.779,52.026,223.434,52.026z M223.434,114.453c-13.076,0-23.715-10.639-23.715-23.715
		s10.639-23.715,23.715-23.715s23.715,10.639,23.715,23.715C247.148,103.815,236.51,114.453,223.434,114.453z"/>
	<path style="fill:#231F20;" d="M453.323,315.433c0-21.346-17.366-38.712-38.713-38.712c-21.345,0-38.711,17.366-38.711,38.712
		c0,21.346,17.366,38.712,38.711,38.712C435.957,354.146,453.323,336.78,453.323,315.433z M390.897,315.433
		c0-13.076,10.638-23.715,23.714-23.715c13.077,0,23.716,10.639,23.716,23.715s-10.639,23.715-23.716,23.715
		S390.897,328.509,390.897,315.433z"/>
	<path style="fill:#231F20;" d="M170.598,171.975c0-26.08-21.216-47.297-47.294-47.297c-26.079,0-47.296,21.217-47.296,47.297
		c0,26.079,21.217,47.295,47.296,47.295C149.381,219.269,170.598,198.054,170.598,171.975z M91.005,171.975
		c0-17.81,14.489-32.3,32.299-32.3c17.809,0,32.297,14.49,32.297,32.3c0,17.809-14.488,32.298-32.297,32.298
		C105.495,204.272,91.005,189.783,91.005,171.975z"/>
	<path style="fill:#231F20;" d="M371.532,395.738c0-24.85-20.218-45.066-45.066-45.066s-45.066,20.218-45.066,45.066
		c0,24.851,20.218,45.068,45.066,45.068S371.532,420.589,371.532,395.738z M296.396,395.738c0-16.58,13.489-30.069,30.069-30.069
		c16.58,0,30.069,13.489,30.069,30.069c0,16.581-13.489,30.071-30.069,30.071C309.884,425.809,296.396,412.319,296.396,395.738z"/>
	<path style="fill:#231F20;" d="M201.844,449.847c27.342,0,49.587-22.244,49.587-49.586c0-27.344-22.244-49.59-49.587-49.59
		c-27.343,0-49.588,22.245-49.588,49.59C152.256,427.602,174.5,449.847,201.844,449.847z M201.844,365.669
		c19.072,0,34.589,15.518,34.589,34.592c0,19.072-15.517,34.588-34.589,34.588c-19.073,0-34.59-15.515-34.59-34.588
		C167.253,381.187,182.771,365.669,201.844,365.669z"/>
	<path style="fill:#231F20;" d="M59.472,302.798c0,28.361,23.073,51.434,51.433,51.434c28.361,0,51.434-23.073,51.434-51.434
		c0-28.361-23.073-51.434-51.434-51.434C82.546,251.364,59.472,274.437,59.472,302.798z M110.907,266.361
		c20.092,0,36.437,16.346,36.437,36.437c0,20.091-16.346,36.437-36.437,36.437s-36.436-16.346-36.436-36.437
		C74.471,282.708,90.815,266.361,110.907,266.361z"/>
</g>
<g>
</g>
<g>
</g>
<g>
</g>
<g>
</g>
<g>
</g>
<g>
</g>
<g>
</g>
<g>
</g>
<g>
</g>
<g>
</g>
<g>
</g>
<g>
</g>
<g>
</g>
<g>
</g>
<g>
</g>
</svg>
